# Blender v2.82 (sub 7) OBJ File: ''
# www.blender.org
mtllib bl_cloth_15_cuts.mtl
o Grid
v -1.000000 0.000000 1.000000
v -0.857143 0.000000 1.000000
v -0.714286 0.000000 1.000000
v -0.571429 0.000000 1.000000
v -0.428571 0.000000 1.000000
v -0.285714 0.000000 1.000000
v -0.142857 0.000000 1.000000
v 0.000000 0.000000 1.000000
v 0.142857 0.000000 1.000000
v 0.285714 0.000000 1.000000
v 0.428571 0.000000 1.000000
v 0.571429 0.000000 1.000000
v 0.714286 0.000000 1.000000
v 0.857143 0.000000 1.000000
v 1.000000 0.000000 1.000000
v -1.000000 0.000000 0.857143
v -0.857143 0.000000 0.857143
v -0.714286 0.000000 0.857143
v -0.571429 0.000000 0.857143
v -0.428571 0.000000 0.857143
v -0.285714 0.000000 0.857143
v -0.142857 0.000000 0.857143
v 0.000000 0.000000 0.857143
v 0.142857 0.000000 0.857143
v 0.285714 0.000000 0.857143
v 0.428571 0.000000 0.857143
v 0.571429 0.000000 0.857143
v 0.714286 0.000000 0.857143
v 0.857143 0.000000 0.857143
v 1.000000 0.000000 0.857143
v -1.000000 0.000000 0.714286
v -0.857143 0.000000 0.714286
v -0.714286 0.000000 0.714286
v -0.571429 0.000000 0.714286
v -0.428571 0.000000 0.714286
v -0.285714 0.000000 0.714286
v -0.142857 0.000000 0.714286
v 0.000000 0.000000 0.714286
v 0.142857 0.000000 0.714286
v 0.285714 0.000000 0.714286
v 0.428571 0.000000 0.714286
v 0.571429 0.000000 0.714286
v 0.714286 0.000000 0.714286
v 0.857143 0.000000 0.714286
v 1.000000 0.000000 0.714286
v -1.000000 0.000000 0.571429
v -0.857143 0.000000 0.571429
v -0.714286 0.000000 0.571429
v -0.571429 0.000000 0.571429
v -0.428571 0.000000 0.571429
v -0.285714 0.000000 0.571429
v -0.142857 0.000000 0.571429
v 0.000000 0.000000 0.571429
v 0.142857 0.000000 0.571429
v 0.285714 0.000000 0.571429
v 0.428571 0.000000 0.571429
v 0.571429 0.000000 0.571429
v 0.714286 0.000000 0.571429
v 0.857143 0.000000 0.571429
v 1.000000 0.000000 0.571429
v -1.000000 0.000000 0.428571
v -0.857143 0.000000 0.428571
v -0.714286 0.000000 0.428571
v -0.571429 0.000000 0.428571
v -0.428571 0.000000 0.428571
v -0.285714 0.000000 0.428571
v -0.142857 0.000000 0.428571
v 0.000000 0.000000 0.428571
v 0.142857 0.000000 0.428571
v 0.285714 0.000000 0.428571
v 0.428571 0.000000 0.428571
v 0.571429 0.000000 0.428571
v 0.714286 0.000000 0.428571
v 0.857143 0.000000 0.428571
v 1.000000 0.000000 0.428571
v -1.000000 0.000000 0.285714
v -0.857143 0.000000 0.285714
v -0.714286 0.000000 0.285714
v -0.571429 0.000000 0.285714
v -0.428571 0.000000 0.285714
v -0.285714 0.000000 0.285714
v -0.142857 0.000000 0.285714
v 0.000000 0.000000 0.285714
v 0.142857 0.000000 0.285714
v 0.285714 0.000000 0.285714
v 0.428571 0.000000 0.285714
v 0.571429 0.000000 0.285714
v 0.714286 0.000000 0.285714
v 0.857143 0.000000 0.285714
v 1.000000 0.000000 0.285714
v -1.000000 0.000000 0.142857
v -0.857143 0.000000 0.142857
v -0.714286 0.000000 0.142857
v -0.571429 0.000000 0.142857
v -0.428571 0.000000 0.142857
v -0.285714 0.000000 0.142857
v -0.142857 0.000000 0.142857
v 0.000000 0.000000 0.142857
v 0.142857 0.000000 0.142857
v 0.285714 0.000000 0.142857
v 0.428571 0.000000 0.142857
v 0.571429 0.000000 0.142857
v 0.714286 0.000000 0.142857
v 0.857143 0.000000 0.142857
v 1.000000 0.000000 0.142857
v -1.000000 0.000000 0.000000
v -0.857143 0.000000 0.000000
v -0.714286 0.000000 0.000000
v -0.571429 0.000000 0.000000
v -0.428571 0.000000 0.000000
v -0.285714 0.000000 0.000000
v -0.142857 0.000000 0.000000
v 0.000000 0.000000 0.000000
v 0.142857 0.000000 0.000000
v 0.285714 0.000000 0.000000
v 0.428571 0.000000 0.000000
v 0.571429 0.000000 0.000000
v 0.714286 0.000000 0.000000
v 0.857143 0.000000 0.000000
v 1.000000 0.000000 0.000000
v -1.000000 0.000000 -0.142857
v -0.857143 0.000000 -0.142857
v -0.714286 0.000000 -0.142857
v -0.571429 0.000000 -0.142857
v -0.428571 0.000000 -0.142857
v -0.285714 0.000000 -0.142857
v -0.142857 0.000000 -0.142857
v 0.000000 0.000000 -0.142857
v 0.142857 0.000000 -0.142857
v 0.285714 0.000000 -0.142857
v 0.428571 0.000000 -0.142857
v 0.571429 0.000000 -0.142857
v 0.714286 0.000000 -0.142857
v 0.857143 0.000000 -0.142857
v 1.000000 0.000000 -0.142857
v -1.000000 0.000000 -0.285714
v -0.857143 0.000000 -0.285714
v -0.714286 0.000000 -0.285714
v -0.571429 0.000000 -0.285714
v -0.428571 0.000000 -0.285714
v -0.285714 0.000000 -0.285714
v -0.142857 0.000000 -0.285714
v 0.000000 0.000000 -0.285714
v 0.142857 0.000000 -0.285714
v 0.285714 0.000000 -0.285714
v 0.428571 0.000000 -0.285714
v 0.571429 0.000000 -0.285714
v 0.714286 0.000000 -0.285714
v 0.857143 0.000000 -0.285714
v 1.000000 0.000000 -0.285714
v -1.000000 0.000000 -0.428571
v -0.857143 0.000000 -0.428571
v -0.714286 0.000000 -0.428571
v -0.571429 0.000000 -0.428571
v -0.428571 0.000000 -0.428571
v -0.285714 0.000000 -0.428571
v -0.142857 0.000000 -0.428571
v 0.000000 0.000000 -0.428571
v 0.142857 0.000000 -0.428571
v 0.285714 0.000000 -0.428571
v 0.428571 0.000000 -0.428571
v 0.571429 0.000000 -0.428571
v 0.714286 0.000000 -0.428571
v 0.857143 0.000000 -0.428571
v 1.000000 0.000000 -0.428571
v -1.000000 0.000000 -0.571429
v -0.857143 0.000000 -0.571429
v -0.714286 0.000000 -0.571429
v -0.571429 0.000000 -0.571429
v -0.428571 0.000000 -0.571429
v -0.285714 0.000000 -0.571429
v -0.142857 0.000000 -0.571429
v 0.000000 0.000000 -0.571429
v 0.142857 0.000000 -0.571429
v 0.285714 0.000000 -0.571429
v 0.428571 0.000000 -0.571429
v 0.571429 0.000000 -0.571429
v 0.714286 0.000000 -0.571429
v 0.857143 0.000000 -0.571429
v 1.000000 0.000000 -0.571429
v -1.000000 0.000000 -0.714286
v -0.857143 0.000000 -0.714286
v -0.714286 0.000000 -0.714286
v -0.571429 0.000000 -0.714286
v -0.428571 0.000000 -0.714286
v -0.285714 0.000000 -0.714286
v -0.142857 0.000000 -0.714286
v 0.000000 0.000000 -0.714286
v 0.142857 0.000000 -0.714286
v 0.285714 0.000000 -0.714286
v 0.428571 0.000000 -0.714286
v 0.571429 0.000000 -0.714286
v 0.714286 0.000000 -0.714286
v 0.857143 0.000000 -0.714286
v 1.000000 0.000000 -0.714286
v -1.000000 0.000000 -0.857143
v -0.857143 0.000000 -0.857143
v -0.714286 0.000000 -0.857143
v -0.571429 0.000000 -0.857143
v -0.428571 0.000000 -0.857143
v -0.285714 0.000000 -0.857143
v -0.142857 0.000000 -0.857143
v 0.000000 0.000000 -0.857143
v 0.142857 0.000000 -0.857143
v 0.285714 0.000000 -0.857143
v 0.428571 0.000000 -0.857143
v 0.571429 0.000000 -0.857143
v 0.714286 0.000000 -0.857143
v 0.857143 0.000000 -0.857143
v 1.000000 0.000000 -0.857143
v -1.000000 0.000000 -1.000000
v -0.857143 0.000000 -1.000000
v -0.714286 0.000000 -1.000000
v -0.571429 0.000000 -1.000000
v -0.428571 0.000000 -1.000000
v -0.285714 0.000000 -1.000000
v -0.142857 0.000000 -1.000000
v 0.000000 0.000000 -1.000000
v 0.142857 0.000000 -1.000000
v 0.285714 0.000000 -1.000000
v 0.428571 0.000000 -1.000000
v 0.571429 0.000000 -1.000000
v 0.714286 0.000000 -1.000000
v 0.857143 0.000000 -1.000000
v 1.000000 0.000000 -1.000000
vt 0.000000 0.000000
vt 0.071429 0.000000
vt 0.071429 0.071429
vt 0.000000 0.071429
vt 0.142857 0.000000
vt 0.142857 0.071429
vt 0.214286 0.000000
vt 0.214286 0.071429
vt 0.285714 0.000000
vt 0.285714 0.071429
vt 0.357143 0.000000
vt 0.357143 0.071429
vt 0.428571 0.000000
vt 0.428571 0.071429
vt 0.500000 0.000000
vt 0.500000 0.071429
vt 0.571429 0.000000
vt 0.571429 0.071429
vt 0.642857 0.000000
vt 0.642857 0.071429
vt 0.714286 0.000000
vt 0.714286 0.071429
vt 0.785714 0.000000
vt 0.785714 0.071429
vt 0.857143 0.000000
vt 0.857143 0.071429
vt 0.928572 0.000000
vt 0.928572 0.071429
vt 1.000000 0.000000
vt 1.000000 0.071429
vt 0.071429 0.142857
vt 0.000000 0.142857
vt 0.142857 0.142857
vt 0.214286 0.142857
vt 0.285714 0.142857
vt 0.357143 0.142857
vt 0.428571 0.142857
vt 0.500000 0.142857
vt 0.571429 0.142857
vt 0.642857 0.142857
vt 0.714286 0.142857
vt 0.785714 0.142857
vt 0.857143 0.142857
vt 0.928572 0.142857
vt 1.000000 0.142857
vt 0.071429 0.214286
vt 0.000000 0.214286
vt 0.142857 0.214286
vt 0.214286 0.214286
vt 0.285714 0.214286
vt 0.357143 0.214286
vt 0.428571 0.214286
vt 0.500000 0.214286
vt 0.571429 0.214286
vt 0.642857 0.214286
vt 0.714286 0.214286
vt 0.785714 0.214286
vt 0.857143 0.214286
vt 0.928572 0.214286
vt 1.000000 0.214286
vt 0.071429 0.285714
vt 0.000000 0.285714
vt 0.142857 0.285714
vt 0.214286 0.285714
vt 0.285714 0.285714
vt 0.357143 0.285714
vt 0.428571 0.285714
vt 0.500000 0.285714
vt 0.571429 0.285714
vt 0.642857 0.285714
vt 0.714286 0.285714
vt 0.785714 0.285714
vt 0.857143 0.285714
vt 0.928572 0.285714
vt 1.000000 0.285714
vt 0.071429 0.357143
vt 0.000000 0.357143
vt 0.142857 0.357143
vt 0.214286 0.357143
vt 0.285714 0.357143
vt 0.357143 0.357143
vt 0.428571 0.357143
vt 0.500000 0.357143
vt 0.571429 0.357143
vt 0.642857 0.357143
vt 0.714286 0.357143
vt 0.785714 0.357143
vt 0.857143 0.357143
vt 0.928572 0.357143
vt 1.000000 0.357143
vt 0.071429 0.428571
vt 0.000000 0.428571
vt 0.142857 0.428571
vt 0.214286 0.428571
vt 0.285714 0.428571
vt 0.357143 0.428571
vt 0.428571 0.428571
vt 0.500000 0.428571
vt 0.571429 0.428571
vt 0.642857 0.428571
vt 0.714286 0.428571
vt 0.785714 0.428571
vt 0.857143 0.428571
vt 0.928572 0.428571
vt 1.000000 0.428571
vt 0.071429 0.500000
vt 0.000000 0.500000
vt 0.142857 0.500000
vt 0.214286 0.500000
vt 0.285714 0.500000
vt 0.357143 0.500000
vt 0.428571 0.500000
vt 0.500000 0.500000
vt 0.571429 0.500000
vt 0.642857 0.500000
vt 0.714286 0.500000
vt 0.785714 0.500000
vt 0.857143 0.500000
vt 0.928572 0.500000
vt 1.000000 0.500000
vt 0.071429 0.571429
vt 0.000000 0.571429
vt 0.142857 0.571429
vt 0.214286 0.571429
vt 0.285714 0.571429
vt 0.357143 0.571429
vt 0.428571 0.571429
vt 0.500000 0.571429
vt 0.571429 0.571429
vt 0.642857 0.571429
vt 0.714286 0.571429
vt 0.785714 0.571429
vt 0.857143 0.571429
vt 0.928572 0.571429
vt 1.000000 0.571429
vt 0.071429 0.642857
vt 0.000000 0.642857
vt 0.142857 0.642857
vt 0.214286 0.642857
vt 0.285714 0.642857
vt 0.357143 0.642857
vt 0.428571 0.642857
vt 0.500000 0.642857
vt 0.571429 0.642857
vt 0.642857 0.642857
vt 0.714286 0.642857
vt 0.785714 0.642857
vt 0.857143 0.642857
vt 0.928572 0.642857
vt 1.000000 0.642857
vt 0.071429 0.714286
vt 0.000000 0.714286
vt 0.142857 0.714286
vt 0.214286 0.714286
vt 0.285714 0.714286
vt 0.357143 0.714286
vt 0.428571 0.714286
vt 0.500000 0.714286
vt 0.571429 0.714286
vt 0.642857 0.714286
vt 0.714286 0.714286
vt 0.785714 0.714286
vt 0.857143 0.714286
vt 0.928572 0.714286
vt 1.000000 0.714286
vt 0.071429 0.785714
vt 0.000000 0.785714
vt 0.142857 0.785714
vt 0.214286 0.785714
vt 0.285714 0.785714
vt 0.357143 0.785714
vt 0.428571 0.785714
vt 0.500000 0.785714
vt 0.571429 0.785714
vt 0.642857 0.785714
vt 0.714286 0.785714
vt 0.785714 0.785714
vt 0.857143 0.785714
vt 0.928572 0.785714
vt 1.000000 0.785714
vt 0.071429 0.857143
vt 0.000000 0.857143
vt 0.142857 0.857143
vt 0.214286 0.857143
vt 0.285714 0.857143
vt 0.357143 0.857143
vt 0.428571 0.857143
vt 0.500000 0.857143
vt 0.571429 0.857143
vt 0.642857 0.857143
vt 0.714286 0.857143
vt 0.785714 0.857143
vt 0.857143 0.857143
vt 0.928572 0.857143
vt 1.000000 0.857143
vt 0.071429 0.928572
vt 0.000000 0.928572
vt 0.142857 0.928572
vt 0.214286 0.928572
vt 0.285714 0.928572
vt 0.357143 0.928572
vt 0.428571 0.928572
vt 0.500000 0.928572
vt 0.571429 0.928572
vt 0.642857 0.928572
vt 0.714286 0.928572
vt 0.785714 0.928572
vt 0.857143 0.928572
vt 0.928572 0.928572
vt 1.000000 0.928572
vt 0.071429 1.000000
vt 0.000000 1.000000
vt 0.142857 1.000000
vt 0.214286 1.000000
vt 0.285714 1.000000
vt 0.357143 1.000000
vt 0.428571 1.000000
vt 0.500000 1.000000
vt 0.571429 1.000000
vt 0.642857 1.000000
vt 0.714286 1.000000
vt 0.785714 1.000000
vt 0.857143 1.000000
vt 0.928572 1.000000
vt 1.000000 1.000000
vn 0.0000 1.0000 0.0000
usemtl None
s off
f 1/1/1 2/2/1 17/3/1 16/4/1
f 2/2/1 3/5/1 18/6/1 17/3/1
f 3/5/1 4/7/1 19/8/1 18/6/1
f 4/7/1 5/9/1 20/10/1 19/8/1
f 5/9/1 6/11/1 21/12/1 20/10/1
f 6/11/1 7/13/1 22/14/1 21/12/1
f 7/13/1 8/15/1 23/16/1 22/14/1
f 8/15/1 9/17/1 24/18/1 23/16/1
f 9/17/1 10/19/1 25/20/1 24/18/1
f 10/19/1 11/21/1 26/22/1 25/20/1
f 11/21/1 12/23/1 27/24/1 26/22/1
f 12/23/1 13/25/1 28/26/1 27/24/1
f 13/25/1 14/27/1 29/28/1 28/26/1
f 14/27/1 15/29/1 30/30/1 29/28/1
f 16/4/1 17/3/1 32/31/1 31/32/1
f 17/3/1 18/6/1 33/33/1 32/31/1
f 18/6/1 19/8/1 34/34/1 33/33/1
f 19/8/1 20/10/1 35/35/1 34/34/1
f 20/10/1 21/12/1 36/36/1 35/35/1
f 21/12/1 22/14/1 37/37/1 36/36/1
f 22/14/1 23/16/1 38/38/1 37/37/1
f 23/16/1 24/18/1 39/39/1 38/38/1
f 24/18/1 25/20/1 40/40/1 39/39/1
f 25/20/1 26/22/1 41/41/1 40/40/1
f 26/22/1 27/24/1 42/42/1 41/41/1
f 27/24/1 28/26/1 43/43/1 42/42/1
f 28/26/1 29/28/1 44/44/1 43/43/1
f 29/28/1 30/30/1 45/45/1 44/44/1
f 31/32/1 32/31/1 47/46/1 46/47/1
f 32/31/1 33/33/1 48/48/1 47/46/1
f 33/33/1 34/34/1 49/49/1 48/48/1
f 34/34/1 35/35/1 50/50/1 49/49/1
f 35/35/1 36/36/1 51/51/1 50/50/1
f 36/36/1 37/37/1 52/52/1 51/51/1
f 37/37/1 38/38/1 53/53/1 52/52/1
f 38/38/1 39/39/1 54/54/1 53/53/1
f 39/39/1 40/40/1 55/55/1 54/54/1
f 40/40/1 41/41/1 56/56/1 55/55/1
f 41/41/1 42/42/1 57/57/1 56/56/1
f 42/42/1 43/43/1 58/58/1 57/57/1
f 43/43/1 44/44/1 59/59/1 58/58/1
f 44/44/1 45/45/1 60/60/1 59/59/1
f 46/47/1 47/46/1 62/61/1 61/62/1
f 47/46/1 48/48/1 63/63/1 62/61/1
f 48/48/1 49/49/1 64/64/1 63/63/1
f 49/49/1 50/50/1 65/65/1 64/64/1
f 50/50/1 51/51/1 66/66/1 65/65/1
f 51/51/1 52/52/1 67/67/1 66/66/1
f 52/52/1 53/53/1 68/68/1 67/67/1
f 53/53/1 54/54/1 69/69/1 68/68/1
f 54/54/1 55/55/1 70/70/1 69/69/1
f 55/55/1 56/56/1 71/71/1 70/70/1
f 56/56/1 57/57/1 72/72/1 71/71/1
f 57/57/1 58/58/1 73/73/1 72/72/1
f 58/58/1 59/59/1 74/74/1 73/73/1
f 59/59/1 60/60/1 75/75/1 74/74/1
f 61/62/1 62/61/1 77/76/1 76/77/1
f 62/61/1 63/63/1 78/78/1 77/76/1
f 63/63/1 64/64/1 79/79/1 78/78/1
f 64/64/1 65/65/1 80/80/1 79/79/1
f 65/65/1 66/66/1 81/81/1 80/80/1
f 66/66/1 67/67/1 82/82/1 81/81/1
f 67/67/1 68/68/1 83/83/1 82/82/1
f 68/68/1 69/69/1 84/84/1 83/83/1
f 69/69/1 70/70/1 85/85/1 84/84/1
f 70/70/1 71/71/1 86/86/1 85/85/1
f 71/71/1 72/72/1 87/87/1 86/86/1
f 72/72/1 73/73/1 88/88/1 87/87/1
f 73/73/1 74/74/1 89/89/1 88/88/1
f 74/74/1 75/75/1 90/90/1 89/89/1
f 76/77/1 77/76/1 92/91/1 91/92/1
f 77/76/1 78/78/1 93/93/1 92/91/1
f 78/78/1 79/79/1 94/94/1 93/93/1
f 79/79/1 80/80/1 95/95/1 94/94/1
f 80/80/1 81/81/1 96/96/1 95/95/1
f 81/81/1 82/82/1 97/97/1 96/96/1
f 82/82/1 83/83/1 98/98/1 97/97/1
f 83/83/1 84/84/1 99/99/1 98/98/1
f 84/84/1 85/85/1 100/100/1 99/99/1
f 85/85/1 86/86/1 101/101/1 100/100/1
f 86/86/1 87/87/1 102/102/1 101/101/1
f 87/87/1 88/88/1 103/103/1 102/102/1
f 88/88/1 89/89/1 104/104/1 103/103/1
f 89/89/1 90/90/1 105/105/1 104/104/1
f 91/92/1 92/91/1 107/106/1 106/107/1
f 92/91/1 93/93/1 108/108/1 107/106/1
f 93/93/1 94/94/1 109/109/1 108/108/1
f 94/94/1 95/95/1 110/110/1 109/109/1
f 95/95/1 96/96/1 111/111/1 110/110/1
f 96/96/1 97/97/1 112/112/1 111/111/1
f 97/97/1 98/98/1 113/113/1 112/112/1
f 98/98/1 99/99/1 114/114/1 113/113/1
f 99/99/1 100/100/1 115/115/1 114/114/1
f 100/100/1 101/101/1 116/116/1 115/115/1
f 101/101/1 102/102/1 117/117/1 116/116/1
f 102/102/1 103/103/1 118/118/1 117/117/1
f 103/103/1 104/104/1 119/119/1 118/118/1
f 104/104/1 105/105/1 120/120/1 119/119/1
f 106/107/1 107/106/1 122/121/1 121/122/1
f 107/106/1 108/108/1 123/123/1 122/121/1
f 108/108/1 109/109/1 124/124/1 123/123/1
f 109/109/1 110/110/1 125/125/1 124/124/1
f 110/110/1 111/111/1 126/126/1 125/125/1
f 111/111/1 112/112/1 127/127/1 126/126/1
f 112/112/1 113/113/1 128/128/1 127/127/1
f 113/113/1 114/114/1 129/129/1 128/128/1
f 114/114/1 115/115/1 130/130/1 129/129/1
f 115/115/1 116/116/1 131/131/1 130/130/1
f 116/116/1 117/117/1 132/132/1 131/131/1
f 117/117/1 118/118/1 133/133/1 132/132/1
f 118/118/1 119/119/1 134/134/1 133/133/1
f 119/119/1 120/120/1 135/135/1 134/134/1
f 121/122/1 122/121/1 137/136/1 136/137/1
f 122/121/1 123/123/1 138/138/1 137/136/1
f 123/123/1 124/124/1 139/139/1 138/138/1
f 124/124/1 125/125/1 140/140/1 139/139/1
f 125/125/1 126/126/1 141/141/1 140/140/1
f 126/126/1 127/127/1 142/142/1 141/141/1
f 127/127/1 128/128/1 143/143/1 142/142/1
f 128/128/1 129/129/1 144/144/1 143/143/1
f 129/129/1 130/130/1 145/145/1 144/144/1
f 130/130/1 131/131/1 146/146/1 145/145/1
f 131/131/1 132/132/1 147/147/1 146/146/1
f 132/132/1 133/133/1 148/148/1 147/147/1
f 133/133/1 134/134/1 149/149/1 148/148/1
f 134/134/1 135/135/1 150/150/1 149/149/1
f 136/137/1 137/136/1 152/151/1 151/152/1
f 137/136/1 138/138/1 153/153/1 152/151/1
f 138/138/1 139/139/1 154/154/1 153/153/1
f 139/139/1 140/140/1 155/155/1 154/154/1
f 140/140/1 141/141/1 156/156/1 155/155/1
f 141/141/1 142/142/1 157/157/1 156/156/1
f 142/142/1 143/143/1 158/158/1 157/157/1
f 143/143/1 144/144/1 159/159/1 158/158/1
f 144/144/1 145/145/1 160/160/1 159/159/1
f 145/145/1 146/146/1 161/161/1 160/160/1
f 146/146/1 147/147/1 162/162/1 161/161/1
f 147/147/1 148/148/1 163/163/1 162/162/1
f 148/148/1 149/149/1 164/164/1 163/163/1
f 149/149/1 150/150/1 165/165/1 164/164/1
f 151/152/1 152/151/1 167/166/1 166/167/1
f 152/151/1 153/153/1 168/168/1 167/166/1
f 153/153/1 154/154/1 169/169/1 168/168/1
f 154/154/1 155/155/1 170/170/1 169/169/1
f 155/155/1 156/156/1 171/171/1 170/170/1
f 156/156/1 157/157/1 172/172/1 171/171/1
f 157/157/1 158/158/1 173/173/1 172/172/1
f 158/158/1 159/159/1 174/174/1 173/173/1
f 159/159/1 160/160/1 175/175/1 174/174/1
f 160/160/1 161/161/1 176/176/1 175/175/1
f 161/161/1 162/162/1 177/177/1 176/176/1
f 162/162/1 163/163/1 178/178/1 177/177/1
f 163/163/1 164/164/1 179/179/1 178/178/1
f 164/164/1 165/165/1 180/180/1 179/179/1
f 166/167/1 167/166/1 182/181/1 181/182/1
f 167/166/1 168/168/1 183/183/1 182/181/1
f 168/168/1 169/169/1 184/184/1 183/183/1
f 169/169/1 170/170/1 185/185/1 184/184/1
f 170/170/1 171/171/1 186/186/1 185/185/1
f 171/171/1 172/172/1 187/187/1 186/186/1
f 172/172/1 173/173/1 188/188/1 187/187/1
f 173/173/1 174/174/1 189/189/1 188/188/1
f 174/174/1 175/175/1 190/190/1 189/189/1
f 175/175/1 176/176/1 191/191/1 190/190/1
f 176/176/1 177/177/1 192/192/1 191/191/1
f 177/177/1 178/178/1 193/193/1 192/192/1
f 178/178/1 179/179/1 194/194/1 193/193/1
f 179/179/1 180/180/1 195/195/1 194/194/1
f 181/182/1 182/181/1 197/196/1 196/197/1
f 182/181/1 183/183/1 198/198/1 197/196/1
f 183/183/1 184/184/1 199/199/1 198/198/1
f 184/184/1 185/185/1 200/200/1 199/199/1
f 185/185/1 186/186/1 201/201/1 200/200/1
f 186/186/1 187/187/1 202/202/1 201/201/1
f 187/187/1 188/188/1 203/203/1 202/202/1
f 188/188/1 189/189/1 204/204/1 203/203/1
f 189/189/1 190/190/1 205/205/1 204/204/1
f 190/190/1 191/191/1 206/206/1 205/205/1
f 191/191/1 192/192/1 207/207/1 206/206/1
f 192/192/1 193/193/1 208/208/1 207/207/1
f 193/193/1 194/194/1 209/209/1 208/208/1
f 194/194/1 195/195/1 210/210/1 209/209/1
f 196/197/1 197/196/1 212/211/1 211/212/1
f 197/196/1 198/198/1 213/213/1 212/211/1
f 198/198/1 199/199/1 214/214/1 213/213/1
f 199/199/1 200/200/1 215/215/1 214/214/1
f 200/200/1 201/201/1 216/216/1 215/215/1
f 201/201/1 202/202/1 217/217/1 216/216/1
f 202/202/1 203/203/1 218/218/1 217/217/1
f 203/203/1 204/204/1 219/219/1 218/218/1
f 204/204/1 205/205/1 220/220/1 219/219/1
f 205/205/1 206/206/1 221/221/1 220/220/1
f 206/206/1 207/207/1 222/222/1 221/221/1
f 207/207/1 208/208/1 223/223/1 222/222/1
f 208/208/1 209/209/1 224/224/1 223/223/1
f 209/209/1 210/210/1 225/225/1 224/224/1
