# Blender v2.82 (sub 7) OBJ File: ''
# www.blender.org
mtllib bl_cloth_05_cuts.mtl
o Grid
v -1.000000 0.000000 1.000000
v -0.500000 0.000000 1.000000
v 0.000000 0.000000 1.000000
v 0.500000 0.000000 1.000000
v 1.000000 0.000000 1.000000
v -1.000000 0.000000 0.500000
v -0.500000 0.000000 0.500000
v 0.000000 0.000000 0.500000
v 0.500000 0.000000 0.500000
v 1.000000 0.000000 0.500000
v -1.000000 0.000000 0.000000
v -0.500000 0.000000 0.000000
v 0.000000 0.000000 0.000000
v 0.500000 0.000000 0.000000
v 1.000000 0.000000 0.000000
v -1.000000 0.000000 -0.500000
v -0.500000 0.000000 -0.500000
v 0.000000 0.000000 -0.500000
v 0.500000 0.000000 -0.500000
v 1.000000 0.000000 -0.500000
v -1.000000 0.000000 -1.000000
v -0.500000 0.000000 -1.000000
v 0.000000 0.000000 -1.000000
v 0.500000 0.000000 -1.000000
v 1.000000 0.000000 -1.000000
vt 0.000000 0.000000
vt 0.250000 0.000000
vt 0.250000 0.250000
vt 0.000000 0.250000
vt 0.500000 0.000000
vt 0.500000 0.250000
vt 0.750000 0.000000
vt 0.750000 0.250000
vt 1.000000 0.000000
vt 1.000000 0.250000
vt 0.250000 0.500000
vt 0.000000 0.500000
vt 0.500000 0.500000
vt 0.750000 0.500000
vt 1.000000 0.500000
vt 0.250000 0.750000
vt 0.000000 0.750000
vt 0.500000 0.750000
vt 0.750000 0.750000
vt 1.000000 0.750000
vt 0.250000 1.000000
vt 0.000000 1.000000
vt 0.500000 1.000000
vt 0.750000 1.000000
vt 1.000000 1.000000
vn 0.0000 1.0000 0.0000
usemtl None
s off
f 1/1/1 2/2/1 7/3/1 6/4/1
f 2/2/1 3/5/1 8/6/1 7/3/1
f 3/5/1 4/7/1 9/8/1 8/6/1
f 4/7/1 5/9/1 10/10/1 9/8/1
f 6/4/1 7/3/1 12/11/1 11/12/1
f 7/3/1 8/6/1 13/13/1 12/11/1
f 8/6/1 9/8/1 14/14/1 13/13/1
f 9/8/1 10/10/1 15/15/1 14/14/1
f 11/12/1 12/11/1 17/16/1 16/17/1
f 12/11/1 13/13/1 18/18/1 17/16/1
f 13/13/1 14/14/1 19/19/1 18/18/1
f 14/14/1 15/15/1 20/20/1 19/19/1
f 16/17/1 17/16/1 22/21/1 21/22/1
f 17/16/1 18/18/1 23/23/1 22/21/1
f 18/18/1 19/19/1 24/24/1 23/23/1
f 19/19/1 20/20/1 25/25/1 24/24/1
